<svg xmlns="http://www.w3.org/2000/svg" width="420" height="1200" viewBox="0 0 420 1200">
  <defs>
    <linearGradient id="kratosGradient" x1="0%" y1="0%" x2="100%" y2="100%">
      <stop offset="0%" style="stop-color:#0d0d0d;stop-opacity:1" />
      <stop offset="30%" style="stop-color:#1a1a1a;stop-opacity:1" />
      <stop offset="70%" style="stop-color:#2d2d2d;stop-opacity:1" />
      <stop offset="100%" style="stop-color:#0d0d0d;stop-opacity:1" />
    </linearGradient>
    <linearGradient id="redAccent" x1="0%" y1="0%" x2="0%" y2="100%">
      <stop offset="0%" style="stop-color:#cc0000;stop-opacity:0.8" />
      <stop offset="50%" style="stop-color:#990000;stop-opacity:0.4" />
      <stop offset="100%" style="stop-color:#cc0000;stop-opacity:0.8" />
    </linearGradient>
    <filter id="glow">
      <feGaussianBlur stdDeviation="3" result="coloredBlur"/>
      <feMerge> 
        <feMergeNode in="coloredBlur"/>
        <feMergeNode in="SourceGraphic"/>
      </feMerge>
    </filter>
  </defs>
  
  <!-- Main background with Kratos gradient -->
  <path id="Path_188" data-name="Path 188" d="M12,0H358a62,62,0,0,1,62,62L300,1138a62,62,0,0,1-62,62H12a12,12,0,0,1-12-12V12A12,12,0,0,1,12,0Z" fill="url(#kratosGradient)"/>
  
  <!-- Red accent border -->
  <path d="M12,0H358a62,62,0,0,1,62,62L300,1138a62,62,0,0,1-62,62H12a12,12,0,0,1-12-12V12A12,12,0,0,1,12,0Z" fill="none" stroke="#cc0000" stroke-width="2" opacity="0.6"/>
  
  <!-- Subtle red accent overlay -->
  <rect x="0" y="0" width="8" height="1200" fill="url(#redAccent)"/>
  
  <!-- Kratos-style decorative elements -->
  <circle cx="380" cy="100" r="30" fill="#cc0000" opacity="0.1" filter="url(#glow)"/>
  <circle cx="350" cy="300" r="20" fill="#990000" opacity="0.15" filter="url(#glow)"/>
  <circle cx="390" cy="500" r="25" fill="#cc0000" opacity="0.08" filter="url(#glow)"/>
  <circle cx="360" cy="700" r="35" fill="#990000" opacity="0.12" filter="url(#glow)"/>
  <circle cx="380" cy="900" r="15" fill="#cc0000" opacity="0.18" filter="url(#glow)"/>
  <circle cx="370" cy="1100" r="28" fill="#990000" opacity="0.1" filter="url(#glow)"/>
</svg>
